<svg width="15" height="19" viewBox="0 0 15 19" fill="none" xmlns="http://www.w3.org/2000/svg">
    <path fill-rule="evenodd" clip-rule="evenodd" d="M5.34137 1.71675C5.34137 0.770248 6.11162 0 7.05812 0C8.00462 0 8.77487 0.770248 8.77487 1.71675V2.09787C8.77487 2.13751 8.77083 2.17622 8.76315 2.2136H13.3529C13.774 2.2136 14.1163 2.5558 14.1163 2.97698C14.1163 3.39815 13.7752 3.74036 13.3529 3.74036H0.763381C0.342205 3.74036 0 3.39815 0 2.97698C0 2.5558 0.341061 2.2136 0.763381 2.2136H5.3531C5.34541 2.17622 5.34137 2.13751 5.34137 2.09787V1.71675ZM1.71673 4.50375V15.214C1.71673 15.7462 2.01773 16.212 2.50186 16.4306C2.68154 16.5118 2.87039 16.5507 3.0558 16.5507C3.37168 16.5507 3.68298 16.4363 3.93248 16.2154L7.05811 13.4675L10.1814 16.2166C10.5809 16.5679 11.1291 16.6492 11.6132 16.4317C12.0973 16.2131 12.3983 15.7462 12.3983 15.2151V4.50375H1.71673ZM5.15024 16.6732L7.05812 14.9943L8.96486 16.6732V18.4278C8.96486 18.7402 8.70506 19 8.39261 19H5.72249C5.41005 19 5.15024 18.7402 5.15024 18.4278V16.6732Z" fill="#F8CF33"/>
</svg>
