<svg width="179" height="139" viewBox="0 0 179 139" fill="none" xmlns="http://www.w3.org/2000/svg">
    <path d="M129.397 35.4264L140.479 24.3445C140.936 23.8883 141.151 23.2429 141.059 22.604C140.969 21.965 140.581 21.4054 140.015 21.0944L126.693 13.7789C125.7 13.2337 124.452 13.5969 123.906 14.5902C123.361 15.5843 123.723 16.8318 124.717 17.3769L135.643 23.376L126.132 32.8858L91.9263 14.1028L101.436 4.59302L111.049 9.8722C112.043 10.4174 113.291 10.055 113.836 9.06089C114.382 8.06758 114.019 6.81933 113.025 6.27418L102.061 0.253421C101.261 -0.18591 100.267 -0.0440096 99.6227 0.601358L88.54 11.684L77.4573 0.601358C76.8119 -0.0440096 75.8178 -0.185109 75.0185 0.253421L37.0645 21.0944C36.4985 21.4054 36.1113 21.9642 36.0207 22.604C35.9293 23.2429 36.1441 23.8883 36.6011 24.3445L47.683 35.4264L36.6011 46.5074C36.1441 46.9644 35.9293 47.609 36.0207 48.2487C36.1113 48.8877 36.4985 49.4473 37.0645 49.7575L48.5336 56.0557V77.1067C48.5336 77.8563 48.9417 78.5457 49.5982 78.9065L87.5523 99.7467C87.8601 99.9158 88.2001 100 88.54 100C88.8799 100 89.2198 99.9158 89.5277 99.7467L127.482 78.9065C128.138 78.5457 128.546 77.8563 128.546 77.1067V56.0557L140.015 49.7583C140.581 49.4473 140.969 48.8877 141.059 48.2487C141.151 47.6098 140.936 46.9644 140.479 46.5082L129.397 35.4264ZM88.54 53.9248L54.8502 35.4256L88.54 16.9256L122.23 35.4256L88.54 53.9248ZM75.6446 4.59302L85.1536 14.1028L50.9475 32.8858L41.4378 23.376L75.6446 4.59302ZM50.9491 37.9661L85.1552 56.7491L75.6446 66.2597L41.4378 47.4767L50.9491 37.9661ZM124.442 75.8929L90.5923 94.4795V73.4998C90.5923 72.3662 89.6736 71.4475 88.54 71.4475C87.4064 71.4475 86.4876 72.3662 86.4876 73.4998V94.4795L52.6383 75.8929V58.3101L75.0185 70.5993C75.3288 70.7693 75.6687 70.8526 76.0054 70.8526C76.5369 70.8526 77.0629 70.6458 77.4573 70.2514L88.54 59.1687L99.6227 70.2514C100.017 70.6466 100.543 70.8526 101.075 70.8526C101.411 70.8526 101.751 70.7693 102.061 70.5993L124.442 58.3101V75.8929ZM101.436 66.2597L91.9255 56.7483L126.132 37.9661L135.643 47.4759L101.436 66.2597Z" fill="black"/>
    <path d="M119.079 13.9921C119.619 13.9921 120.146 13.7725 120.53 13.3901C120.912 13.0084 121.131 12.4793 121.131 11.9398C121.131 11.3994 120.912 10.8703 120.53 10.4887C120.149 10.1063 119.619 9.88744 119.079 9.88744C118.537 9.88744 118.01 10.1063 117.628 10.4887C117.244 10.8703 117.027 11.3994 117.027 11.9398C117.027 12.4793 117.244 13.0084 117.628 13.3901C118.01 13.7725 118.54 13.9921 119.079 13.9921Z" fill="black"/>
    <path d="M88.54 64.6338C88.0004 64.6338 87.4705 64.8527 87.0889 65.2351C86.7073 65.6183 86.4876 66.1458 86.4876 66.6862C86.4876 67.2273 86.7073 67.7548 87.0889 68.1388C87.4705 68.5205 88.0004 68.7385 88.54 68.7385C89.0795 68.7385 89.6094 68.5205 89.991 68.1388C90.3726 67.7548 90.5923 67.2273 90.5923 66.6862C90.5923 66.1458 90.3726 65.6183 89.991 65.2351C89.6094 64.8527 89.0795 64.6338 88.54 64.6338Z" fill="black"/>
    <path opacity="0.4" d="M4.88281 129.016L7.5 123.625H9.6875L5.875 130.812V135H3.89062V130.812L0.0703125 123.625H2.26562L4.88281 129.016ZM9.86719 130.695C9.86719 129.867 10.0312 129.122 10.3594 128.461C10.6875 127.794 11.1484 127.284 11.7422 126.93C12.3359 126.57 13.0182 126.391 13.7891 126.391C14.9297 126.391 15.8542 126.758 16.5625 127.492C17.276 128.227 17.6615 129.201 17.7188 130.414L17.7266 130.859C17.7266 131.693 17.5651 132.438 17.2422 133.094C16.9245 133.75 16.4661 134.258 15.8672 134.617C15.2734 134.977 14.5859 135.156 13.8047 135.156C12.612 135.156 11.6562 134.76 10.9375 133.969C10.224 133.172 9.86719 132.112 9.86719 130.789V130.695ZM11.7656 130.859C11.7656 131.729 11.9453 132.411 12.3047 132.906C12.6641 133.396 13.1641 133.641 13.8047 133.641C14.4453 133.641 14.9427 133.391 15.2969 132.891C15.6562 132.391 15.8359 131.659 15.8359 130.695C15.8359 129.841 15.651 129.164 15.2812 128.664C14.9167 128.164 14.4193 127.914 13.7891 127.914C13.1693 127.914 12.6771 128.161 12.3125 128.656C11.9479 129.146 11.7656 129.88 11.7656 130.859ZM24.4531 134.172C23.8958 134.828 23.1042 135.156 22.0781 135.156C21.1615 135.156 20.4661 134.888 19.9922 134.352C19.5234 133.815 19.2891 133.039 19.2891 132.023V126.547H21.1875V132C21.1875 133.073 21.6328 133.609 22.5234 133.609C23.4453 133.609 24.0677 133.279 24.3906 132.617V126.547H26.2891V135H24.5L24.4531 134.172ZM34.0781 127.469C34.6979 126.75 35.4818 126.391 36.4297 126.391C38.2318 126.391 39.1458 127.419 39.1719 129.477V135H37.2734V129.547C37.2734 128.964 37.1458 128.552 36.8906 128.312C36.6406 128.068 36.2708 127.945 35.7812 127.945C35.0208 127.945 34.4531 128.284 34.0781 128.961V135H32.1797V123H34.0781V127.469ZM46.1484 135C46.0651 134.839 45.9922 134.576 45.9297 134.211C45.3255 134.841 44.5859 135.156 43.7109 135.156C42.862 135.156 42.1693 134.914 41.6328 134.43C41.0964 133.945 40.8281 133.346 40.8281 132.633C40.8281 131.732 41.1615 131.042 41.8281 130.562C42.5 130.078 43.4583 129.836 44.7031 129.836H45.8672V129.281C45.8672 128.844 45.7448 128.495 45.5 128.234C45.2552 127.969 44.8828 127.836 44.3828 127.836C43.9505 127.836 43.5964 127.945 43.3203 128.164C43.0443 128.378 42.9062 128.651 42.9062 128.984H41.0078C41.0078 128.521 41.1615 128.089 41.4688 127.688C41.776 127.281 42.1927 126.964 42.7188 126.734C43.25 126.505 43.8411 126.391 44.4922 126.391C45.4818 126.391 46.2708 126.641 46.8594 127.141C47.4479 127.635 47.75 128.333 47.7656 129.234V133.047C47.7656 133.807 47.8724 134.414 48.0859 134.867V135H46.1484ZM44.0625 133.633C44.4375 133.633 44.7891 133.542 45.1172 133.359C45.4505 133.177 45.7005 132.932 45.8672 132.625V131.031H44.8438C44.1406 131.031 43.612 131.154 43.2578 131.398C42.9036 131.643 42.7266 131.99 42.7266 132.438C42.7266 132.802 42.8464 133.094 43.0859 133.312C43.3307 133.526 43.6562 133.633 44.0625 133.633ZM52.6094 132.594L54.3984 126.547H56.3594L53.4297 135H51.7812L48.8281 126.547H50.7969L52.6094 132.594ZM61.1641 135.156C59.9609 135.156 58.9844 134.779 58.2344 134.023C57.4896 133.263 57.1172 132.253 57.1172 130.992V130.758C57.1172 129.914 57.2786 129.161 57.6016 128.5C57.9297 127.833 58.388 127.315 58.9766 126.945C59.5651 126.576 60.2214 126.391 60.9453 126.391C62.0964 126.391 62.9844 126.758 63.6094 127.492C64.2396 128.227 64.5547 129.266 64.5547 130.609V131.375H59.0312C59.0885 132.073 59.3203 132.625 59.7266 133.031C60.138 133.438 60.6536 133.641 61.2734 133.641C62.1432 133.641 62.8516 133.289 63.3984 132.586L64.4219 133.562C64.0833 134.068 63.6302 134.461 63.0625 134.742C62.5 135.018 61.8672 135.156 61.1641 135.156ZM60.9375 127.914C60.4167 127.914 59.9948 128.096 59.6719 128.461C59.3542 128.826 59.151 129.333 59.0625 129.984H62.6797V129.844C62.638 129.208 62.4688 128.729 62.1719 128.406C61.875 128.078 61.4635 127.914 60.9375 127.914ZM71.7812 126.547L71.8359 127.523C72.4609 126.768 73.2812 126.391 74.2969 126.391C76.0573 126.391 76.9531 127.398 76.9844 129.414V135H75.0859V129.523C75.0859 128.987 74.9688 128.591 74.7344 128.336C74.5052 128.076 74.1276 127.945 73.6016 127.945C72.8359 127.945 72.2656 128.292 71.8906 128.984V135H69.9922V126.547H71.7812ZM78.5703 130.695C78.5703 129.867 78.7344 129.122 79.0625 128.461C79.3906 127.794 79.8516 127.284 80.4453 126.93C81.0391 126.57 81.7214 126.391 82.4922 126.391C83.6328 126.391 84.5573 126.758 85.2656 127.492C85.9792 128.227 86.3646 129.201 86.4219 130.414L86.4297 130.859C86.4297 131.693 86.2682 132.438 85.9453 133.094C85.6276 133.75 85.1693 134.258 84.5703 134.617C83.9766 134.977 83.2891 135.156 82.5078 135.156C81.3151 135.156 80.3594 134.76 79.6406 133.969C78.9271 133.172 78.5703 132.112 78.5703 130.789V130.695ZM80.4688 130.859C80.4688 131.729 80.6484 132.411 81.0078 132.906C81.3672 133.396 81.8672 133.641 82.5078 133.641C83.1484 133.641 83.6458 133.391 84 132.891C84.3594 132.391 84.5391 131.659 84.5391 130.695C84.5391 129.841 84.3542 129.164 83.9844 128.664C83.6198 128.164 83.1224 127.914 82.4922 127.914C81.8724 127.914 81.3802 128.161 81.0156 128.656C80.651 129.146 80.4688 129.88 80.4688 130.859ZM95.4922 133.641C95.9661 133.641 96.3594 133.503 96.6719 133.227C96.9844 132.951 97.151 132.609 97.1719 132.203H98.9609C98.9401 132.729 98.776 133.221 98.4688 133.68C98.1615 134.133 97.7448 134.492 97.2188 134.758C96.6927 135.023 96.125 135.156 95.5156 135.156C94.3333 135.156 93.3958 134.773 92.7031 134.008C92.0104 133.242 91.6641 132.185 91.6641 130.836V130.641C91.6641 129.354 92.0078 128.326 92.6953 127.555C93.3828 126.779 94.3203 126.391 95.5078 126.391C96.513 126.391 97.3307 126.685 97.9609 127.273C98.5964 127.857 98.9297 128.625 98.9609 129.578H97.1719C97.151 129.094 96.9844 128.695 96.6719 128.383C96.3646 128.07 95.9714 127.914 95.4922 127.914C94.8776 127.914 94.4036 128.138 94.0703 128.586C93.737 129.029 93.5677 129.703 93.5625 130.609V130.914C93.5625 131.831 93.7266 132.516 94.0547 132.969C94.388 133.417 94.8672 133.641 95.4922 133.641ZM100.039 130.695C100.039 129.867 100.203 129.122 100.531 128.461C100.859 127.794 101.32 127.284 101.914 126.93C102.508 126.57 103.19 126.391 103.961 126.391C105.102 126.391 106.026 126.758 106.734 127.492C107.448 128.227 107.833 129.201 107.891 130.414L107.898 130.859C107.898 131.693 107.737 132.438 107.414 133.094C107.096 133.75 106.638 134.258 106.039 134.617C105.445 134.977 104.758 135.156 103.977 135.156C102.784 135.156 101.828 134.76 101.109 133.969C100.396 133.172 100.039 132.112 100.039 130.789V130.695ZM101.938 130.859C101.938 131.729 102.117 132.411 102.477 132.906C102.836 133.396 103.336 133.641 103.977 133.641C104.617 133.641 105.115 133.391 105.469 132.891C105.828 132.391 106.008 131.659 106.008 130.695C106.008 129.841 105.823 129.164 105.453 128.664C105.089 128.164 104.591 127.914 103.961 127.914C103.341 127.914 102.849 128.161 102.484 128.656C102.12 129.146 101.938 129.88 101.938 130.859ZM111.266 126.547L111.32 127.523C111.945 126.768 112.766 126.391 113.781 126.391C115.542 126.391 116.438 127.398 116.469 129.414V135H114.57V129.523C114.57 128.987 114.453 128.591 114.219 128.336C113.99 128.076 113.612 127.945 113.086 127.945C112.32 127.945 111.75 128.292 111.375 128.984V135H109.477V126.547H111.266ZM120.789 124.492V126.547H122.281V127.953H120.789V132.672C120.789 132.995 120.852 133.229 120.977 133.375C121.107 133.516 121.336 133.586 121.664 133.586C121.883 133.586 122.104 133.56 122.328 133.508V134.977C121.896 135.096 121.479 135.156 121.078 135.156C119.62 135.156 118.891 134.352 118.891 132.742V127.953H117.5V126.547H118.891V124.492H120.789ZM128.789 135C128.706 134.839 128.633 134.576 128.57 134.211C127.966 134.841 127.227 135.156 126.352 135.156C125.503 135.156 124.81 134.914 124.273 134.43C123.737 133.945 123.469 133.346 123.469 132.633C123.469 131.732 123.802 131.042 124.469 130.562C125.141 130.078 126.099 129.836 127.344 129.836H128.508V129.281C128.508 128.844 128.385 128.495 128.141 128.234C127.896 127.969 127.523 127.836 127.023 127.836C126.591 127.836 126.237 127.945 125.961 128.164C125.685 128.378 125.547 128.651 125.547 128.984H123.648C123.648 128.521 123.802 128.089 124.109 127.688C124.417 127.281 124.833 126.964 125.359 126.734C125.891 126.505 126.482 126.391 127.133 126.391C128.122 126.391 128.911 126.641 129.5 127.141C130.089 127.635 130.391 128.333 130.406 129.234V133.047C130.406 133.807 130.513 134.414 130.727 134.867V135H128.789ZM126.703 133.633C127.078 133.633 127.43 133.542 127.758 133.359C128.091 133.177 128.341 132.932 128.508 132.625V131.031H127.484C126.781 131.031 126.253 131.154 125.898 131.398C125.544 131.643 125.367 131.99 125.367 132.438C125.367 132.802 125.487 133.094 125.727 133.312C125.971 133.526 126.297 133.633 126.703 133.633ZM135.867 133.641C136.341 133.641 136.734 133.503 137.047 133.227C137.359 132.951 137.526 132.609 137.547 132.203H139.336C139.315 132.729 139.151 133.221 138.844 133.68C138.536 134.133 138.12 134.492 137.594 134.758C137.068 135.023 136.5 135.156 135.891 135.156C134.708 135.156 133.771 134.773 133.078 134.008C132.385 133.242 132.039 132.185 132.039 130.836V130.641C132.039 129.354 132.383 128.326 133.07 127.555C133.758 126.779 134.695 126.391 135.883 126.391C136.888 126.391 137.706 126.685 138.336 127.273C138.971 127.857 139.305 128.625 139.336 129.578H137.547C137.526 129.094 137.359 128.695 137.047 128.383C136.74 128.07 136.346 127.914 135.867 127.914C135.253 127.914 134.779 128.138 134.445 128.586C134.112 129.029 133.943 129.703 133.938 130.609V130.914C133.938 131.831 134.102 132.516 134.43 132.969C134.763 133.417 135.242 133.641 135.867 133.641ZM143.148 124.492V126.547H144.641V127.953H143.148V132.672C143.148 132.995 143.211 133.229 143.336 133.375C143.466 133.516 143.695 133.586 144.023 133.586C144.242 133.586 144.464 133.56 144.688 133.508V134.977C144.255 135.096 143.839 135.156 143.438 135.156C141.979 135.156 141.25 134.352 141.25 132.742V127.953H139.859V126.547H141.25V124.492H143.148ZM150.836 132.703C150.836 132.365 150.695 132.107 150.414 131.93C150.138 131.753 149.677 131.596 149.031 131.461C148.385 131.326 147.846 131.154 147.414 130.945C146.466 130.487 145.992 129.823 145.992 128.953C145.992 128.224 146.299 127.615 146.914 127.125C147.529 126.635 148.31 126.391 149.258 126.391C150.268 126.391 151.083 126.641 151.703 127.141C152.328 127.641 152.641 128.289 152.641 129.086H150.742C150.742 128.721 150.607 128.419 150.336 128.18C150.065 127.935 149.706 127.812 149.258 127.812C148.841 127.812 148.5 127.909 148.234 128.102C147.974 128.294 147.844 128.552 147.844 128.875C147.844 129.167 147.966 129.393 148.211 129.555C148.456 129.716 148.951 129.88 149.695 130.047C150.44 130.208 151.023 130.404 151.445 130.633C151.872 130.857 152.188 131.128 152.391 131.445C152.599 131.763 152.703 132.148 152.703 132.602C152.703 133.362 152.388 133.979 151.758 134.453C151.128 134.922 150.302 135.156 149.281 135.156C148.589 135.156 147.971 135.031 147.43 134.781C146.888 134.531 146.466 134.188 146.164 133.75C145.862 133.312 145.711 132.841 145.711 132.336H147.555C147.581 132.784 147.75 133.13 148.062 133.375C148.375 133.615 148.789 133.734 149.305 133.734C149.805 133.734 150.185 133.641 150.445 133.453C150.706 133.26 150.836 133.01 150.836 132.703ZM161.305 132.281L163.023 126.547H165.047L161.688 136.281C161.172 137.703 160.297 138.414 159.062 138.414C158.786 138.414 158.482 138.367 158.148 138.273V136.805L158.508 136.828C158.987 136.828 159.346 136.74 159.586 136.562C159.831 136.391 160.023 136.099 160.164 135.688L160.438 134.961L157.469 126.547H159.516L161.305 132.281ZM169.758 135.156C168.555 135.156 167.578 134.779 166.828 134.023C166.083 133.263 165.711 132.253 165.711 130.992V130.758C165.711 129.914 165.872 129.161 166.195 128.5C166.523 127.833 166.982 127.315 167.57 126.945C168.159 126.576 168.815 126.391 169.539 126.391C170.69 126.391 171.578 126.758 172.203 127.492C172.833 128.227 173.148 129.266 173.148 130.609V131.375H167.625C167.682 132.073 167.914 132.625 168.32 133.031C168.732 133.438 169.247 133.641 169.867 133.641C170.737 133.641 171.445 133.289 171.992 132.586L173.016 133.562C172.677 134.068 172.224 134.461 171.656 134.742C171.094 135.018 170.461 135.156 169.758 135.156ZM169.531 127.914C169.01 127.914 168.589 128.096 168.266 128.461C167.948 128.826 167.745 129.333 167.656 129.984H171.273V129.844C171.232 129.208 171.062 128.729 170.766 128.406C170.469 128.078 170.057 127.914 169.531 127.914ZM177.008 124.492V126.547H178.5V127.953H177.008V132.672C177.008 132.995 177.07 133.229 177.195 133.375C177.326 133.516 177.555 133.586 177.883 133.586C178.102 133.586 178.323 133.56 178.547 133.508V134.977C178.115 135.096 177.698 135.156 177.297 135.156C175.839 135.156 175.109 134.352 175.109 132.742V127.953H173.719V126.547H175.109V124.492H177.008Z" fill="black"/>
</svg>
