<svg width="9" height="9" viewBox="0 0 9 9" fill="none" xmlns="http://www.w3.org/2000/svg">
    <g clip-path="url(#clip0_586_142)">
        <path d="M6.9451 4.37181C6.78334 4.00775 6.54819 3.68098 6.25437 3.41196L6.01191 3.1895C6.00367 3.18215 5.99376 3.17694 5.98305 3.17431C5.97233 3.17169 5.96113 3.17174 5.95044 3.17445C5.93974 3.17717 5.92988 3.18247 5.92171 3.18988C5.91354 3.1973 5.90732 3.20661 5.90359 3.21699L5.79527 3.52778C5.72778 3.72275 5.60364 3.92188 5.42783 4.11769C5.41616 4.13018 5.40283 4.13352 5.39367 4.13435C5.3845 4.13518 5.37034 4.13352 5.35784 4.12185C5.34618 4.11185 5.34034 4.09686 5.34118 4.08186C5.372 3.58027 5.22203 3.01452 4.89375 2.39878C4.62212 1.8872 4.24468 1.48809 3.77308 1.2098L3.42897 1.00733C3.38398 0.980669 3.32649 1.01566 3.32899 1.06816L3.34732 1.46809C3.35981 1.74139 3.32815 1.98302 3.25316 2.18382C3.16151 2.42961 3.02987 2.65791 2.86156 2.86288C2.74443 3.00533 2.61167 3.13417 2.46579 3.24699C2.11443 3.51708 1.82873 3.86317 1.63008 4.25933C1.43192 4.65895 1.3287 5.09892 1.32846 5.54497C1.32846 5.93824 1.40595 6.31901 1.55926 6.67813C1.70729 7.02388 1.92092 7.33767 2.18833 7.60215C2.45829 7.86878 2.77157 8.07874 3.12068 8.22455C3.4823 8.3762 3.86557 8.45285 4.26134 8.45285C4.65711 8.45285 5.04039 8.3762 5.402 8.22539C5.75025 8.08043 6.06694 7.86903 6.33436 7.60298C6.60431 7.33636 6.81595 7.02474 6.96343 6.67896C7.11651 6.32083 7.19503 5.93527 7.19422 5.5458C7.19422 5.1392 7.1109 4.74426 6.9451 4.37181Z" fill="#E91B1B"/>
    </g>
    <defs>
        <clipPath id="clip0_586_142">
            <rect width="8.53202" height="8.53202" fill="white" transform="translate(-0.0055542 0.46225)"/>
        </clipPath>
    </defs>
</svg>
