<svg width="21" height="21" viewBox="0 0 21 21" fill="none" xmlns="http://www.w3.org/2000/svg">
    <path d="M10.5001 0.00488281C6.09597 0.00488281 2.50391 3.59695 2.50391 8.00104C2.50391 9.74786 3.05745 11.4086 4.10319 12.7987L10.008 20.7539C10.094 20.8768 10.3278 20.9999 10.5001 20.9999C10.6846 20.9999 10.9061 20.8646 10.9922 20.7538C11.0167 20.7169 16.9585 12.7125 17.0077 12.6387C17.02 12.6387 17.02 12.6387 17.02 12.6265C17.9796 11.2733 18.4962 9.67403 18.4962 8.00104C18.4962 3.59699 14.9042 0.00488281 10.5001 0.00488281ZM10.5001 12.3067C8.12592 12.3067 6.19445 10.3753 6.19445 8.00104C6.19445 5.62681 8.12592 3.69543 10.5001 3.69543C12.8742 3.69543 14.8057 5.62681 14.8057 8.00104C14.8057 10.3753 12.8742 12.3067 10.5001 12.3067Z" fill="#FF833D"/>
    <path d="M10.5 0V3.69054C12.8741 3.69054 14.8056 5.62193 14.8056 7.99616C14.8056 10.3704 12.8741 12.3018 10.5 12.3018V20.995C10.6846 20.995 10.9061 20.8597 10.9921 20.7489C11.0166 20.712 16.9584 12.7077 17.0077 12.6338C17.02 12.6338 17.02 12.6338 17.02 12.6216C17.9795 11.2684 18.4961 9.66915 18.4961 7.99616C18.4962 3.59207 14.9041 0 10.5 0Z" fill="#E86D28"/>
</svg>
