<svg width="11" height="10" viewBox="0 0 11 10" fill="none" xmlns="http://www.w3.org/2000/svg">
    <path d="M3.05508 0.816398C3.05508 0.583247 3.24409 0.394241 3.47724 0.394241H10.5132C10.7463 0.394241 10.9354 0.583248 10.9354 0.816399V1.66071C10.9354 1.89386 10.7463 2.08287 10.5132 2.08287H3.47724C3.24409 2.08287 3.05508 1.89386 3.05508 1.66071V0.816398Z" fill="#2E2F41"/>
    <path d="M3.05508 4.54928C3.05508 4.31613 3.24409 4.12712 3.47724 4.12712H10.5132C10.7463 4.12712 10.9354 4.31613 10.9354 4.54928V5.39359C10.9354 5.62674 10.7463 5.81575 10.5132 5.81575H3.47724C3.24409 5.81575 3.05508 5.62674 3.05508 5.39359V4.54928Z" fill="#2E2F41"/>
    <path d="M3.05508 8.28194C3.05508 8.04879 3.24409 7.85978 3.47724 7.85978H10.5132C10.7463 7.85978 10.9354 8.04879 10.9354 8.28194V9.12625C10.9354 9.3594 10.7463 9.54841 10.5132 9.54841H3.47724C3.24409 9.54841 3.05508 9.3594 3.05508 9.12625V8.28194Z" fill="#2E2F41"/>
    <path d="M0.241699 0.563264C0.241699 0.470004 0.317302 0.394402 0.410562 0.394402H1.76147C1.85473 0.394402 1.93033 0.470004 1.93033 0.563264V1.91417C1.93033 2.00743 1.85473 2.08303 1.76147 2.08303H0.410562C0.317302 2.08303 0.241699 2.00743 0.241699 1.91417V0.563264Z" fill="#2E2F41"/>
    <path d="M0.240692 4.29598C0.240692 4.20272 0.316295 4.12712 0.409555 4.12712H1.76046C1.85372 4.12712 1.92932 4.20272 1.92932 4.29598V5.64689C1.92932 5.74015 1.85372 5.81575 1.76046 5.81575H0.409555C0.316295 5.81575 0.240692 5.74015 0.240692 5.64689V4.29598Z" fill="#2E2F41"/>
    <path d="M0.240692 8.02864C0.240692 7.93538 0.316295 7.85978 0.409555 7.85978H1.76046C1.85372 7.85978 1.92932 7.93538 1.92932 8.02864V9.37955C1.92932 9.47281 1.85372 9.54841 1.76046 9.54841H0.409555C0.316295 9.54841 0.240692 9.47281 0.240692 9.37955V8.02864Z" fill="#2E2F41"/>
</svg>
