<svg width="14" height="12" viewBox="0 0 14 12" fill="none" xmlns="http://www.w3.org/2000/svg">
    <path d="M2.04984 3.24198V10.352H10.9374V11.537H2.04984C0.864838 11.537 0.864838 10.352 0.864838 10.352V3.24198H2.04984ZM12.1224 2.05698V7.982H4.41985V2.05698H12.1224ZM12.3001 0.871979H4.2421C3.68514 0.871979 3.23484 1.28673 3.23484 1.79036V8.24862C3.23484 8.75817 3.68514 9.167 4.2421 9.167H12.3001C12.8571 9.167 13.3074 8.75817 13.3074 8.24862V1.79036C13.3074 1.28673 12.8571 0.871979 12.3001 0.871979ZM5.01235 2.64948H6.78985V5.61199H5.01235V2.64948ZM11.5299 7.38949H5.01235V6.20449H11.5299V7.38949ZM11.5299 3.83449H7.97485V2.64948H11.5299V3.83449ZM11.5299 5.61199H7.97485V4.42699H11.5299V5.61199Z" fill="#E91B1B"/>
</svg>
