<svg width="14" height="15" viewBox="0 0 14 15" fill="none" xmlns="http://www.w3.org/2000/svg">
    <path d="M11.4788 2.46085H2.38018C1.70313 2.46085 1.15259 2.97903 1.15259 3.61622V11.7039C1.15259 12.3411 1.70313 12.8592 2.38018 12.8592H11.4788C12.1558 12.8592 12.7064 12.3411 12.7064 11.7039V3.61622C12.7064 2.97903 12.1558 2.46085 11.4788 2.46085ZM11.4788 11.7039H2.38018C2.34725 11.7039 2.32472 11.6946 2.3149 11.6946C2.31085 11.6946 2.30854 11.6958 2.30797 11.6992L2.30103 3.6428C2.30508 3.63702 2.33107 3.61622 2.38018 3.61622H11.4788C11.5244 3.6168 11.5493 3.6324 11.551 3.62085L11.5579 11.6773C11.5539 11.6831 11.5279 11.7039 11.4788 11.7039Z" fill="#E91B1B"/>
    <path d="M3.46356 4.7718H6.9297V8.23793H3.46356V4.7718ZM7.50738 9.39331H3.46356V10.5487H10.3958V9.39331H8.08507H7.50738ZM8.08507 7.08255H10.3958V8.23793H8.08507V7.08255ZM8.08507 4.7718H10.3958V5.92717H8.08507V4.7718Z" fill="#E91B1B"/>
</svg>
