<svg width="15" height="14" viewBox="0 0 15 14" fill="none" xmlns="http://www.w3.org/2000/svg">
    <path d="M12.3741 10.5717L10.427 8.6249C10.3391 8.53703 10.22 8.48822 10.095 8.48822H9.77667C10.3157 7.79894 10.636 6.93197 10.636 5.98885C10.636 3.74527 8.81776 1.92737 6.5738 1.92737C4.32984 1.92737 2.51163 3.74527 2.51163 5.98885C2.51163 8.23242 4.32984 10.0503 6.5738 10.0503C7.51708 10.0503 8.3842 9.73009 9.0736 9.19117V9.50944C9.0736 9.63441 9.12242 9.75352 9.21031 9.84139L11.1574 11.7882C11.341 11.9717 11.6378 11.9717 11.8195 11.7882L12.3722 11.2356C12.5557 11.052 12.5557 10.7552 12.3741 10.5717ZM6.5738 8.48822C5.19305 8.48822 4.074 7.37131 4.074 5.98885C4.074 4.60833 5.1911 3.48948 6.5738 3.48948C7.95455 3.48948 9.0736 4.60638 9.0736 5.98885C9.0736 7.36936 7.9565 8.48822 6.5738 8.48822Z" fill="#2E2F41"/>
</svg>
