<svg width="12" height="12" viewBox="0 0 12 12" fill="none" xmlns="http://www.w3.org/2000/svg">
    <path d="M10.0567 6.72441C10.0767 6.55777 10.09 6.38446 10.09 6.20449C10.09 6.02452 10.0767 5.85121 10.05 5.68457L11.1765 4.80471C11.2765 4.72472 11.3032 4.57807 11.2432 4.46476L10.1767 2.61838C10.11 2.49839 9.97006 2.4584 9.85007 2.4984L8.52361 3.03165C8.24365 2.81835 7.95037 2.64504 7.62375 2.51173L7.42378 1.09861C7.40378 0.965298 7.29047 0.871979 7.15716 0.871979H5.02415C4.89084 0.871979 4.78419 0.965298 4.76419 1.09861L4.56422 2.51173C4.2376 2.64504 3.93765 2.82501 3.66436 3.03165L2.3379 2.4984C2.21792 2.45174 2.07794 2.49839 2.01128 2.61838L0.944778 4.46476C0.878122 4.58474 0.904785 4.72472 1.01143 4.80471L2.13793 5.68457C2.11127 5.85121 2.09127 6.03118 2.09127 6.20449C2.09127 6.3778 2.1046 6.55777 2.13126 6.72441L1.00477 7.60428C0.904784 7.68426 0.878122 7.83091 0.938113 7.94422L2.00462 9.79061C2.07127 9.91059 2.21125 9.95058 2.33123 9.91059L3.65769 9.37734C3.93765 9.59064 4.23094 9.76394 4.55756 9.89726L4.75752 11.3104C4.78419 11.4437 4.89084 11.537 5.02415 11.537H7.15716C7.29047 11.537 7.40378 11.4437 7.41712 11.3104L7.61708 9.89726C7.9437 9.76394 8.24366 9.58397 8.51695 9.37734L9.84341 9.91059C9.96339 9.95725 10.1034 9.91059 10.17 9.79061L11.2365 7.94422C11.3032 7.82424 11.2765 7.68426 11.1699 7.60428L10.0567 6.72441ZM6.09065 8.20418C4.99082 8.20418 4.09096 7.30432 4.09096 6.20449C4.09096 5.10466 4.99082 4.2048 6.09065 4.2048C7.19048 4.2048 8.09034 5.10466 8.09034 6.20449C8.09034 7.30432 7.19048 8.20418 6.09065 8.20418Z" fill="#A0A0A0"/>
</svg>
