<svg width="21" height="21" viewBox="0 0 21 21" fill="none" xmlns="http://www.w3.org/2000/svg">
    <path fill-rule="evenodd" clip-rule="evenodd" d="M12.6724 2.17241C12.6724 2.85672 12.3552 3.46609 11.861 3.86436C13.3893 4.42086 14.4828 5.88253 14.4828 7.60345V8.68966H6.51724V7.60345C6.51724 5.88253 7.61069 4.42086 9.13898 3.86436C8.64476 3.46609 8.32759 2.85672 8.32759 2.17241C8.32759 0.972517 9.3001 0 10.5 0C11.6999 0 12.6724 0.972517 12.6724 2.17241ZM6.15517 14.4828C6.15517 15.1671 5.838 15.7764 5.34378 16.1747C6.87207 16.7312 7.96552 18.1929 7.96552 19.9138V21H0V19.9138C0 18.1929 1.09345 16.7312 2.62174 16.1747C2.12752 15.7764 1.81034 15.1671 1.81034 14.4828C1.81034 13.2829 2.78286 12.3103 3.98276 12.3103C5.18265 12.3103 6.15517 13.2829 6.15517 14.4828ZM18.3783 16.1747C18.8725 15.7764 19.1897 15.1671 19.1897 14.4828C19.1897 13.2829 18.2171 12.3103 17.0172 12.3103C15.8173 12.3103 14.8448 13.2829 14.8448 14.4828C14.8448 15.1671 15.162 15.7764 15.6562 16.1747C14.1279 16.7312 13.0345 18.1929 13.0345 19.9138V21H21V19.9138C21 18.1929 19.9066 16.7312 18.3783 16.1747ZM10.8621 9.77586V11.7745L12.5366 13.1138L12.0841 13.6793L10.5 12.4121L8.91595 13.6793L8.46336 13.1138L10.1379 11.7745V9.77586H10.8621Z" fill="white"/>
</svg>
